<?xml version="1.0" standalone="no"?><!DOCTYPE svg PUBLIC "-//W3C//DTD SVG 1.1//EN" "http://www.w3.org/Graphics/SVG/1.1/DTD/svg11.dtd"><svg class="icon" width="200px" height="200.00px" viewBox="0 0 1024 1024" version="1.1" xmlns="http://www.w3.org/2000/svg"><path fill="#333333" d="M385 840.5c-20.8 0-41.7-7.9-57.6-23.8L87.6 576.9c-31.8-31.8-31.8-83.3 0-115.1s83.3-31.8 115.1 0l239.8 239.8c31.8 31.8 31.8 83.3 0 115.1-15.9 15.9-36.7 23.8-57.5 23.8z"  /><path fill="#333333" d="M384.6 840.5c-20.8 0-41.7-7.9-57.6-23.8-31.8-31.8-31.8-83.3 0-115.1l494.2-494.2c31.8-31.8 83.3-31.8 115.1 0s31.8 83.3 0 115.1L442.2 816.7c-15.9 15.9-36.8 23.8-57.6 23.8z"  /></svg>